<?xml version="1.0" encoding="UTF-8"?>
<svg id="Layer_2" data-name="Layer 2" xmlns="http://www.w3.org/2000/svg" viewBox="0 0 1170.44 512.55">
  <g id="Layer_1-2" data-name="Layer 1">
    <g>
      <path d="M507.99,164.06c0-10.88,.17-16.66,.51-21.26-15.65,.17-16.67,.17-24.66,0-.69-29.25,3.06-50.68,6.97-69.05-4.93-.17-12.42-.68-23.98-.68-9.36,0-16.67,.17-24.83,.51-1.87,10.89-5.96,34.19-5.96,69.9,0,25.51,2.05,40.48,3.41,49.5,23.98,2.04,42.34,2.21,50.34,2.21,10.03,0,15.13-.34,19.22-.51-.34-5.45-1.02-14.46-1.02-30.62Z"/>
      <path d="M735.89,60.49c-3.91,4.76-7.48,9.86-13.44,19.22-5.95-10.55-6.97-12.08-10.71-18.03-8.17,7.65-19.05,17.86-36.74,42.52-17.35,23.81-28.4,43.2-33.84,52.72,9.18,15.31,21.09,28.91,34.18,41.16,10.21-20.92,18.2-32.66,22.45-38.78,6.3,12.76,11.06,19.9,20.92,30.61,9.87-8.84,19.73-21.6,24.83-30.1,6.12,11.23,8.68,17.52,16.84,40.14,17.35-12.42,30.61-25.34,41.16-38.1-19.9-46.6-45.24-78.4-65.65-101.36Z"/>
      <path d="M1042.88,169.16c0-45.91,3.06-76.7,4.59-93.37-15.14-2.04-30.27-3.4-45.41-2.89-.85,7.49-1.53,19.05-1.7,25.34-23.81-14.28-35.72-21.43-53.92-36.56-2.04,13.94-5.44,36.73-5.44,78.91,0,23.47,1.02,42.86,1.7,53.58,5.1,.17,12.25,.68,22.11,.68,8.34,0,14.97-.34,21.77-.68-.51-7.83-1.19-18.88-1.36-24.67,21.26,16.16,35.04,25.18,58.34,38.1-.34-12.92-.68-22.45-.68-38.44Z"/>
      <g>
        <path d="M413.68,413.79c-4.62-6.85-8.14-11.53-13.69-18.22-1.18-1.41-1.28-3.32-.24-4.82,4.94-7.17,12.35-19.25,12.35-34.64,0-20.37-13.23-36.73-28.59-44.54-17.5-8.75-40.55-14.08-71.91-14.08-6.14,0-11.17,.22-15.39,.41-2.25,.1-4.11,1.56-4.5,3.54-2.85,14.49-7.22,40.28-7.22,82.45,0,22.86,1.48,36.21,2.56,45.31,.25,2.1,2.17,3.72,4.53,3.84,5.85,.29,14.41,.53,27.91,.53,10.74,0,16.15-.23,21.04-.5,2.57-.14,4.56-2.06,4.52-4.36-.01-.06-.01-.13-.01-.19,0-.13,0-.27,.02-.39l-.2-18.2c-.25-.52,0,.62,0,0l-.2-23.75c0-1.92,1.42-3.64,3.5-4.13,2.62-.63,4.43-.63,5.04-.63,4.91,0,7.51,2.85,7.47,6.28-.18,13.69-.85,16.96-6.28,20.82-.91,.64-1.94,.92-2.95,.91v10.72c1.53-.13,3.15,.38,4.26,1.7,3.81,4.51,5.38,13.11,9.76,19.15,1.39,1.91,4.22,2.53,6.44,1.4,12.07-6.13,24.26-12.53,40.44-22.88,2.04-1.31,2.62-3.8,1.33-5.73Z"/>
        <path d="M624.01,392.91c-16.22-36.12-35.91-71-62.46-101.95-1.73-2.02-5.07-2.24-7.14-.49-36.86,31.21-69.52,65.82-97.98,103.33-1.13,1.49-1.09,3.45,.07,4.91,13.26,16.79,23.09,26.72,39.6,38.44,2.48,1.76,6.15,.95,7.43-1.64,10.27-20.77,23.45-39.02,34.86-51.82,2.2-2.47,6.54-2.08,8.1,.75,9.58,17.28,15.59,33.22,20.22,50.36,.8,2.96,4.7,4.29,7.48,2.52,15.93-10.17,32.31-22.54,49.01-40.02,1.16-1.22,1.47-2.91,.81-4.39Z"/>
        <path d="M555.41,424.31c-.77-6.42-2.42-12.78-4.58-18.32-.86-2.22-3.56-3.41-6.06-2.67-4.49,1.32-11.32,3.18-18.52,4.74-2.54,.55-4.12,2.82-3.55,5.1,1.31,5.34,2.21,10.84,2.87,16.18,.3,2.39,2.73,4.1,5.4,3.8,6.99-.79,14.67-2.32,21.15-4.29,2.15-.65,3.53-2.53,3.29-4.54Z"/>
        <path d="M777.41,300.44c-30.07-2.78-60.62-2.95-65.47-2.95-12.72,0-20.93,.4-27.78,.87-2.24,.15-4.05,1.65-4.4,3.62-2.3,13.21-6.24,37.66-6.24,73.92,0,23.77,1.73,41.7,2.85,52.54,.21,2.01,1.95,3.62,4.19,3.87,5.67,.64,13.4,1.26,28.17,1.26,10.97,0,17.55-.33,22.96-.65,2.73-.17,4.76-2.31,4.47-4.74-1.35-11.46-3.31-30.23-3.31-53.23,0-13.11,.57-21.1,1.13-27.12,.2-2.16,2.16-3.84,4.58-3.95,3.3-.14,5.73-.14,10.08-.14,3,0,12.9,0,24.95,.51,2.77,.12,5.07-1.86,5.06-4.33-.05-11.13,1.01-20.4,3.07-34.65,.35-2.4-1.6-4.58-4.31-4.83Z"/>
        <path d="M775.7,370.49c-1.8-6.8-3.43-11.62-6-17.99-.89-2.23-3.66-3.39-6.17-2.6-12.54,3.98-18.99,6.82-23.07,8.87-1.78,.89-2.71,2.7-2.37,4.49,.85,4.34,1.64,7.37,4.39,16.89,.68,2.37,3.44,3.76,6.06,3.06,10.64-2.83,17.11-4.97,24.38-7.77,2.15-.83,3.31-2.92,2.78-4.95Z"/>
        <path d="M936.94,304.25c-.28-2.05-2.17-3.62-4.48-3.75-15.28-.87-31.95-1.68-59.62-1.68-21.86,0-32.1,.73-40.76,1.43-2.15,.17-3.91,1.6-4.31,3.49-2.06,9.82-3.8,19.97-3.8,33.53,0,3.39,.08,5.78,.18,7.71,.12,2.06,1.86,3.76,4.15,4.04,7.47,.91,15.09,1.33,20.27,1.56,2.68,.12,4.73,2.15,4.57,4.53-.79,12.44-1.64,27.02-1.64,42.68,0,14.58,.65,22.67,1.38,30.43,.19,2.01,1.93,3.64,4.19,3.9,8.84,1.04,21.37,2.25,48.19,2.22,2.44,0,4.51-1.63,4.79-3.79,1.39-10.52,3.55-28.76,3.55-51.6,0-10.11-.41-18.36-.8-24.87-.14-2.41,1.98-4.44,4.69-4.51,6.11-.18,12-.67,17.27-1.42,2.24-.32,3.9-2.01,4.01-4.04,.13-2.42,.22-5.17,.22-9.13,0-10.23-.68-20.61-2.05-30.73Z"/>
      </g>
      <g>
        <path d="M257.41,104.76c12.58-47.35,31.3-53.74,47.96-53.74,25.21,0,43.7,6.35,55.01,18.83-34.4,.17-64.65,28-64.65,64.96s30.1,64.97,64.97,64.97c14.83,0,28.58-4.99,39.59-13.43l-16.37-16.37c-1.59,.67-3.35,1.05-5.2,1.05-7.15,0-13.27-5.79-13.27-13.44s6.46-13.44,13.27-13.44,13.43,5.79,13.43,13.44c0,1.89-.41,3.7-1.13,5.35l16.71,16.71c11.07-11.59,17.92-27.3,17.92-44.86,0-.28-.02-.55-.02-.83,.89-6.6,6.76-58.61-25.7-96.44C378.57,12.63,346.75,0,305.37,0c-26.37,0-48.49,9.5-65.73,28.24-13.9,15.1-24.22,35.85-31.55,63.42-9.82,36.98-13.21,82.92-15.25,129.67l-.98,25.51-.97,25.51c-1.88,49.79-4.46,99.71-13.93,136.11-12.05,46.35-29.73,52.83-45.44,53.05-37.13,.49-50.72-8.58-57.71-15.47-15.55-15.33-22.79-46.87-22.79-99.24,0-27.63,6.59-47.83,19.58-60.06,14.36-13.5,33.8-14.48,39.14-14.48,.63,0,1.06,.01,1.27,.02l.66,.07h64.34l1-25.51,1.01-25.51H113.79c-8.4-.47-46.6-.84-77.41,27.56C12.24,271.14,0,304.08,0,346.8c0,67.85,11.71,109.66,37.99,135.57,20.84,20.55,49.66,30.18,90.49,30.18,1.24,0,2.5,0,3.76-.02,25.64-.36,47.1-10.03,63.78-28.72,13.36-14.97,23.28-35.42,30.32-62.51,10.92-41.99,13.62-95.77,15.61-148.95l.98-25.51,.99-25.51h0c1.93-43.12,5.08-84.88,13.5-116.57Z"/>
        <polygon points="1170.44 221.33 984.44 221.33 257.98 221.33 257.04 246.84 256.1 272.35 984.44 272.35 984.44 297.24 1170.44 221.33"/>
      </g>
      <path d="M600.66,170.23c-1.42,.52-2.96,.82-4.57,.82-7.15,0-13.27-5.79-13.27-13.44s6.46-13.44,13.27-13.44,13.43,5.79,13.43,13.44c0,2.12-.51,4.13-1.41,5.94l16.57,16.57c11.32-11.63,18.35-27.52,18.35-45.29,0-36.57-29.77-64.97-64.97-64.97s-64.97,27.89-64.97,64.97,30.1,64.97,64.97,64.97c14.61,0,28.18-4.84,39.11-13.05l-16.51-16.51Z"/>
      <path d="M887.91,169.98c-1.61,.69-3.38,1.07-5.24,1.07-7.15,0-13.27-5.79-13.27-13.44s6.46-13.44,13.27-13.44,13.43,5.79,13.43,13.44c0,1.88-.4,3.68-1.11,5.31l16.72,16.72c11.05-11.58,17.9-27.29,17.9-44.82,0-36.57-29.77-64.97-64.97-64.97s-64.97,27.89-64.97,64.97,30.1,64.97,64.97,64.97c14.84,0,28.61-5,39.62-13.45l-16.35-16.35Z"/>
    </g>
  </g>
</svg>